<svg xmlns="http://www.w3.org/2000/svg" viewBox="0 0 512 512" role="img" aria-labelledby="title desc">
  <title id="title">Ведело</title>
  <desc id="desc">Геометрическая кириллическая буква В с мотивом выполненного дела</desc>
  <rect width="512" height="512" rx="124" fill="#f7efe1"/>
  <path d="M136 96h130c87 0 132 36 132 102 0 39-20 67-59 84 50 15 75 49 75 101 0 78-53 121-151 121H136V96Zm84 70v83h42c34 0 52-14 52-42 0-27-18-41-54-41h-40Zm0 146v122h49c40 0 61-20 61-59 0-36-21-55-64-55h-46Z" fill="#2f2a24"/>
  <path d="m194 304 47 49 92-113 49 40-138 164-101-96 51-44Z" fill="#a56f2a"/>
</svg>
